<svg xmlns="http://www.w3.org/2000/svg" width="1024" height="1024" viewBox="0 0 1024 1024" fill="none">
  <defs>
    <linearGradient id="tile" x1="120" y1="40" x2="900" y2="980" gradientUnits="userSpaceOnUse">
      <stop stop-color="#F3F8F9"/>
      <stop offset="0.5" stop-color="#E2EEF0"/>
      <stop offset="1" stop-color="#C9DDE1"/>
    </linearGradient>
    <linearGradient id="tileSheen" x1="200" y1="80" x2="700" y2="500" gradientUnits="userSpaceOnUse">
      <stop stop-color="#FFFFFF" stop-opacity="0.52"/>
      <stop offset="1" stop-color="#FFFFFF" stop-opacity="0"/>
    </linearGradient>
    <radialGradient id="orbBody" cx="0" cy="0" r="1" gradientUnits="userSpaceOnUse" gradientTransform="translate(420 350) rotate(95) scale(240 240)">
      <stop stop-color="#FFFFFF" stop-opacity="0.96"/>
      <stop offset="0.5" stop-color="#E6F2F4" stop-opacity="0.9"/>
      <stop offset="1" stop-color="#A9C8CF" stop-opacity="0.78"/>
    </radialGradient>
    <linearGradient id="orbStroke" x1="300" y1="250" x2="720" y2="720" gradientUnits="userSpaceOnUse">
      <stop stop-color="#FFFFFF" stop-opacity="0.75"/>
      <stop offset="0.45" stop-color="#FFFFFF" stop-opacity="0.35"/>
      <stop offset="1" stop-color="#8FB0B8" stop-opacity="0.5"/>
    </linearGradient>
    <linearGradient id="ring" x1="320" y1="280" x2="700" y2="660" gradientUnits="userSpaceOnUse">
      <stop stop-color="#3D7A86"/>
      <stop offset="1" stop-color="#2A5A64"/>
    </linearGradient>
    <filter id="softBlur" x="-20%" y="-20%" width="140%" height="140%">
      <feGaussianBlur stdDeviation="5"/>
    </filter>
  </defs>
  <rect x="64" y="64" width="896" height="896" rx="240" fill="url(#tile)"/>
  <rect x="64" y="64" width="896" height="896" rx="240" fill="url(#tileSheen)"/>
  <rect x="64" y="64" width="896" height="896" rx="240" stroke="#FFFFFF" stroke-opacity="0.65" stroke-width="3"/>
  <ellipse cx="512" cy="748" rx="200" ry="42" fill="#5F8A92" opacity="0.16" filter="url(#softBlur)"/>
  <ellipse cx="512" cy="742" rx="150" ry="24" fill="#FFFFFF" opacity="0.5"/>
  <circle cx="512" cy="455" r="214" stroke="#173238" stroke-opacity="0.12" stroke-width="28" fill="none"/>
  <path d="M512 241 A214 214 0 0 1 697.3 562" stroke="url(#ring)" stroke-width="28" stroke-linecap="round" fill="none"/>
  <circle cx="512" cy="455" r="178" fill="url(#orbBody)"/>
  <circle cx="512" cy="455" r="178" stroke="url(#orbStroke)" stroke-width="8" fill="none"/>
  <path d="M455 380 L575 455 L455 530" stroke="#173238" stroke-width="44" stroke-linecap="round" stroke-linejoin="round" fill="none"/>
  <ellipse cx="440" cy="390" rx="36" ry="20" fill="#FFFFFF" opacity="0.2" transform="rotate(-30 440 390)"/>
</svg>